# xmcd
#
# Track frame offsets: 
#        150
#        20375
#        33530
#        50787
#        63052
#        76697
#        91175
#        107145
#        125562
#        139222
#        153200
#        167317
#        180585
#        195990
#        214110
#        230812
#
# Disc length: 3328 seconds
#
# Revision: 7
# Processed by: cddbd v1.5.2PL0 Copyright (c) Steve Scherf et al.
# Submitted via: ExactAudioCopy v0.99pb5
#
DISCID=ca0cfe10
DTITLE=Various Artist - KILOMETER 330
DYEAR=1990
DGENRE=Country
TTITLE0=JONNY HILL - Hallo Teddybär
TTITLE1=TOM ASTOR - Nutz Die Zeit
TTITLE2=LINDA FELLER - Du Bist Das Salz In Meiner Suppe
TTITLE3=JONNY HILL - Wenn Ich Nur Fliegen Könnte
TTITLE4=FRANK BAUM and COUNTRY GREEN - Hallo Nachbar, Guten Morgen
TTITLE5=GREYHOUNDS - Country Songs and Honky Tonks
TTITLE6=TEX HAPER - Auch Ein Trucker Hat Ein Herz
TTITLE7=JONNY HILLl - Sie Macht Was Sie Will
TTITLE8=TRUCK STOP - Tausend Meilen
TTITLE9=JONNY HILL - Da Sind So Viele Fragen
TTITLE10=FRANK BAUM and COUNTRY GREEN - Liebe Fragt Nicht
TTITLE11=GREYHOUNDS - Der Alptraum
TTITLE12=TRUCK RIDERS - Frei Sein
TTITLE13=MAX ZWO - Bayrischer Kauboi
TTITLE14=LINDA FELLER - Das Soll Alles Jetzt Vorbei Sein
TTITLE15=SAMMY´S SALOON - Sie Kocht Den Besten Kaffee Von Ganz Texas
EXTD=YEAR: 1990 ID3G: 2
EXTT0=
EXTT1=
EXTT2=
EXTT3=
EXTT4=
EXTT5=
EXTT6=
EXTT7=
EXTT8=
EXTT9=
EXTT10=
EXTT11=
EXTT12=
EXTT13=
EXTT14=
EXTT15=
PLAYORDER=
